<?xml version="1.0" standalone="no"?>
<!DOCTYPE svg PUBLIC "-//W3C//DTD SVG 20010904//EN"
 "http://www.w3.org/TR/2001/REC-SVG-20010904/DTD/svg10.dtd">
<svg version="1.0" xmlns="http://www.w3.org/2000/svg"
 width="281.000000pt" height="213.000000pt" viewBox="0 0 281.000000 213.000000"
 preserveAspectRatio="xMidYMid meet">

<g transform="translate(0.000000,213.000000) scale(0.100000,-0.100000)"
fill="#000000" stroke="none">
<path d="M476 1749 c-38 -30 -36 -76 7 -115 54 -52 1837 -1444 1863 -1456 49
-22 104 30 90 86 -4 16 -45 55 -119 112 -61 48 -116 90 -120 94 -4 4 2 25 15
46 l23 39 3 565 c2 415 0 572 -9 593 -12 27 -54 57 -82 57 -8 0 -247 -70 -533
-155 -431 -129 -523 -160 -541 -181 -13 -14 -23 -32 -23 -40 0 -8 -3 -14 -6
-14 -3 0 -96 71 -207 158 -338 265 -312 250 -361 211z m1572 -666 c-3 -197 -5
-228 -18 -225 -77 18 -155 9 -245 -28 -31 -13 -33 -11 -219 136 -103 82 -184
150 -179 151 115 36 642 192 651 192 10 1 12 -48 10 -226z"/>
<path d="M1048 823 l-3 -168 -25 5 c-50 10 -146 3 -196 -13 -185 -63 -234
-280 -92 -402 57 -48 126 -70 220 -69 130 1 237 68 274 173 9 25 13 104 14
262 l0 227 -95 76 -95 76 -2 -167z"/>
</g>
</svg>
