<svg version="1.0" xmlns="http://www.w3.org/2000/svg"
 width="264.000000pt" height="224.000000pt" viewBox="0 0 264.000000 224.000000"
 preserveAspectRatio="xMidYMid meet">

<g transform="translate(0.000000,224.000000) scale(0.100000,-0.100000)"
fill="#ffffff" stroke="none">
<path d="M1440 1694 c-340 -102 -522 -162 -535 -175 -19 -19 -20 -36 -25 -402
l-5 -382 -25 5 c-50 10 -146 3 -196 -13 -185 -63 -234 -280 -92 -402 57 -48
126 -70 220 -69 122 1 212 53 269 154 11 20 15 101 19 384 l5 358 375 114
c206 62 387 116 403 119 l27 7 -2 -229 -3 -228 -25 5 c-50 10 -146 3 -196 -13
-185 -63 -234 -280 -92 -402 57 -48 126 -70 220 -69 130 1 237 68 274 173 20
56 20 1131 0 1170 -15 28 -54 51 -84 50 -9 0 -249 -70 -532 -155z"/>
</g>
</svg>
